#!OML:ASF I:\salsa\salsa 7_09\Patient 1\Session 1\dancermale.ASF
:FULLY-SPECIFIED
:DEGREES
1551
root 12.2946 15.1271 -3.49685 1271.32 143.575 -174.235
lowerback 4.79998 -7.25902 -10.5246
upperback 1.96192 -10.0922 0.620106
thorax 1.31224 -5.1849 6.64198
lowerneck -8.46175 -16.251 9.69164
upperneck 7.08771 -53.667 -13.6595
head 387.371 -123.906 -529.062
rclavicle 1.26427e-013 -1.98785e-014
rhumerus -4.03321 -39.0148 -14.4755
rradius 134.647
rwrist 37.9813
rhand -65.2996 67.3432
rfingers 7.12502
rthumb -37.181 41.3257
lclavicle 1.26427e-013 -1.98785e-014
lhumerus -40.2988 -39.4657 122.492
lradius 97.9393
lwrist 26.2982
lhand -13.7655 50.4231
lfingers 7.12502
lthumb 12.3552 1160.04
rfemur -46.693 4.40602 12.8384
rtibia 71.135
rfoot -31.2924 -6.51128
rtoes -12.3631
lfemur -11.1535 12.1396 9.83505
ltibia 31.6551
lfoot -7.9046 17.8095
ltoes -31.4495
1552
root 12.2496 15.1747 -3.40943 1271.32 143.36 -174.436
lowerback 4.66567 -7.01391 -10.1996
upperback 1.86092 -9.74315 0.409394
thorax 1.11856 -4.98865 6.25594
lowerneck -8.62198 -16.341 9.89784
upperneck 6.93135 -53.2176 -13.179
head 387.153 -122.334 -529.568
rclavicle -1.16289e-014 3.29983e-014
rhumerus -4.57436 -38.2578 -15.2879
rradius 134.889
rwrist 37.5143
rhand -65.4677 67.3718
rfingers 7.12502
rthumb -37.3399 41.396
lclavicle -1.16289e-014 3.29983e-014
lhumerus -41.3755 -37.9262 121.959
lradius 98.3556
lwrist 26.469
lhand -14.0296 50.4494
lfingers 7.12502
lthumb 12.1005 1160.08
rfemur -46.326 4.51067 13.5255
rtibia 70.791
rfoot -31.3401 -6.60963
rtoes -9.89629
lfemur -10.9465 11.3472 10.2332
ltibia 30.8792
lfoot -6.673 17.7979
ltoes -30.0299
1553
root 12.2127 15.2133 -3.29841 1271.5 143.029 -173.517
lowerback 4.69003 -6.84606 -10.6357
upperback 1.97837 -9.52803 -0.117574
thorax 1.16977 -4.88207 5.94385
lowerneck -8.93772 -16.6802 10.1555
upperneck 7.10919 -53.5977 -13.3738
head 387.655 -122.16 -529.757
rclavicle -1.88845e-015 -6.36111e-015
rhumerus -4.85706 -36.8123 -16.7001
rradius 135.19
rwrist 36.7851
rhand -65.5095 67.7346
rfingers 7.12502
rthumb -37.3795 41.7692
lclavicle -1.88845e-015 -6.36111e-015
lhumerus -42.1478 -36.2768 121.122
lradius 98.726
lwrist 26.6304
lhand -14.1602 50.4862
lfingers 7.12502
lthumb 11.9747 1160.12
rfemur -45.2023 4.23355 13.2117
rtibia 70.1263
rfoot -31.4668 -6.26482
rtoes -6.66687
lfemur -10.0284 9.86039 9.58392
ltibia 29.4222
lfoot -4.99783 17.9225
ltoes -28.7813
1554
root 12.1551 15.2681 -3.18787 1271.68 142.345 -173.592
lowerback 4.33789 -6.84637 -10.2135
upperback 1.89847 -9.47572 -0.342148
thorax 1.16175 -4.84367 5.45067
lowerneck -9.04506 -16.8004 10.2453
upperneck 7.03227 -53.2556 -13.1617
head 388.063 -120.702 -530.521
rclavicle 2.62396e-014 -1.51076e-014
rhumerus -4.81412 -34.7194 -18.8397
rradius 135.398
rwrist 35.9021
rhand -65.4684 66.894
rfingers 7.12502
rthumb -37.3407 40.9184
lclavicle 2.62396e-014 -1.51076e-014
lhumerus -42.8147 -34.3147 120.106
lradius 99.0424
lwrist 26.7868
lhand -13.9424 50.3817
lfingers 7.12502
lthumb 12.1847 1160.01
rfemur -44.6957 3.96228 13.881
rtibia 69.4385
rfoot -31.4997 -6.41599
rtoes -4.82145
lfemur -9.97492 8.56343 9.92167
ltibia 28.0263
lfoot -2.68899 18.3132
ltoes -26.1636
1555
root 12.0841 15.3301 -3.05752 1271.66 141.786 -173.75
lowerback 4.06006 -6.73054 -9.96192
upperback 1.76549 -9.2895 -0.535161
thorax 1.07048 -4.73595 5.09985
lowerneck -9.12019 -17.1328 10.5091
upperneck 7.33249 -53.902 -13.3518
head 387.579 -121.609 -529.872
rclavicle 1.50878e-013 1.74931e-014
rhumerus -4.88805 -32.0109 -21.0156
rradius 135.483
rwrist 35.1022
rhand -65.4296 65.1819
rfingers 7.12502
rthumb -37.304 39.1966
lclavicle 1.50878e-013 1.74931e-014
lhumerus -43.7063 -32.2392 119.329
lradius 99.1697
lwrist 26.3507
lhand -13.9976 50.3186
lfingers 7.12502
lthumb 12.1314 1159.95
rfemur -43.9402 3.89271 14.7386
rtibia 68.5142
rfoot -31.2726 -7.05372
rtoes -4.64543
lfemur -9.55468 7.38733 10.4565
ltibia 26.3151
lfoot -0.231062 18.4285
ltoes -23.0467
1556
root 11.9939 15.3993 -2.91713 1271.17 141.173 -174.319
lowerback 3.69706 -6.45844 -9.21384
upperback 1.86374 -8.8563 -0.882263
thorax 1.13239 -4.51262 4.30693
lowerneck -9.17095 -17.4876 10.6319
upperneck 7.56855 -54.0244 -13.4603
head 388.052 -120.46 -530.466
rclavicle 7.73272e-014 -2.22639e-014
rhumerus -5.51464 -28.8922 -23.4114
rradius 135.446
rwrist 34.9006
rhand -65.7687 65.0555
rfingers 7.12502
rthumb -37.6244 39.1551
lclavicle 7.73272e-014 -2.22639e-014
lhumerus -44.6416 -30.628 118.4
lradius 99.3028
lwrist 25.9419
lhand -14.2457 50.4753
lfingers 7.12502
lthumb 11.8922 1160.12
rfemur -42.8158 3.90756 16.0905
rtibia 67.3218
rfoot -30.9022 -7.77244
rtoes -4.35595
lfemur -8.80057 6.29556 11.4727
ltibia 24.3059
lfoot 2.54766 18.3546
ltoes -19.4806
1557
root 11.8713 15.4943 -2.79347 1271.72 139.925 -173.691
lowerback 3.64113 -6.38023 -9.49546
upperback 1.7877 -8.75411 -1.26875
thorax 1.05094 -4.45159 4.06338
lowerneck -9.31495 -17.9814 10.6791
upperneck 8.02991 -54.5446 -13.9159
head 388.81 -119.625 -530.96
rclavicle 9.02482e-014 -1.98785e-014
rhumerus -5.95768 -25.4577 -26.1763
rradius 135.182
rwrist 34.6908
rhand -66.0029 65.709
rfingers 7.12502
rthumb -37.8457 39.868
lclavicle 9.02482e-014 -1.98785e-014
lhumerus -45.3754 -28.9721 117.477
lradius 99.3087
lwrist 25.5678
lhand -14.521 50.3623
lfingers 7.12502
lthumb 11.6267 1160.02
rfemur -41.9558 2.82259 16.439
rtibia 66.0333
rfoot -30.6208 -8.18781
rtoes -2.94146
lfemur -8.93032 4.40442 11.1741
ltibia 22.1524
lfoot 5.89571 18.5468
ltoes -16.4515
1558
root 11.7482 15.588 -2.6559 1271.45 138.75 -173.91
lowerback 3.70119 -6.23749 -9.26338
upperback 1.8443 -8.55789 -1.49868
thorax 0.978436 -4.34633 3.71486
lowerneck -9.64191 -18.4565 10.8351
upperneck 8.40233 -55.0467 -14.1912
head 389.227 -118.843 -531.25
rclavicle -5.68524e-014 -2.78299e-014
rhumerus -6.16803 -21.6869 -29.5023
rradius 134.779
rwrist 33.9436
rhand -65.7939 63.0483
rfingers 7.12502
rthumb -37.6482 37.1542
lclavicle -5.68524e-014 -2.78299e-014
lhumerus -45.9516 -27.1816 116.446
lradius 99.2323
lwrist 25.1321
lhand -14.8833 50.4019
lfingers 7.12502
lthumb 11.2773 1160.08
rfemur -40.6878 2.12051 17.5718
rtibia 64.5143
rfoot -30.3617 -8.51862
rtoes -0.744875
lfemur -8.62214 2.81343 11.745
ltibia 19.7838
lfoot 8.4161 20.2481
ltoes -5.07871
1559
root 11.6255 15.691 -2.5263 1271.11 137.548 -174.045
lowerback 3.90757 -6.06599 -8.93621
upperback 1.92413 -8.33384 -1.83601
thorax 0.818253 -4.22202 3.22293
lowerneck -9.89358 -19.0184 10.978
upperneck 9.0025 -55.7908 -14.751
head 389.843 -118.3 -531.511
rclavicle 9.8796e-014 3.02153e-014
rhumerus -6.46752 -17.2485 -33.3801
rradius 134.31
rwrist 33.1395
rhand -66.3324 56.6812
rfingers 7.12502
rthumb -38.1569 30.9248
lclavicle 9.8796e-014 3.02153e-014
lhumerus -46.5383 -25.4413 115.369
lradius 99.2363
lwrist 24.6969
lhand -15.1501 50.7931
lfingers 7.12502
lthumb 11.02 1160.48
rfemur -39.2221 1.25593 18.5681
rtibia 62.7839
rfoot -29.9944 -8.65327
rtoes 1.71519
lfemur -8.16921 1.17423 12.06
ltibia 17.1755
lfoot 10.6032 22.5038
ltoes 6.45832
